<svg xmlns="http://www.w3.org/2000/svg" viewBox="0 0 64 64">
  <defs>
    <linearGradient id="bg" x1="0%" y1="0%" x2="100%" y2="100%">
      <stop offset="0%" style="stop-color:#1a1a1a"/>
      <stop offset="100%" style="stop-color:#2a2a2a"/>
    </linearGradient>
    <linearGradient id="moon" x1="0%" y1="0%" x2="100%" y2="100%">
      <stop offset="0%" style="stop-color:#6ee7b7"/>
      <stop offset="100%" style="stop-color:#34d399"/>
    </linearGradient>
    <filter id="glow">
      <feGaussianBlur stdDeviation="2" result="blur"/>
      <feMerge>
        <feMergeNode in="blur"/>
        <feMergeNode in="SourceGraphic"/>
      </feMerge>
    </filter>
  </defs>
  <circle cx="32" cy="32" r="30" fill="url(#bg)" stroke="#6ee7b7" stroke-width="1.5"/>
  <path d="M36 12c-1.5 0-3 .2-4.4.6 5.8 2.4 9.9 8 9.9 14.6 0 8.7-7 15.8-15.7 15.8-3.2 0-6.2-1-8.6-2.6C20 47.6 26.3 52 33.6 52 43.2 52 51 44.2 51 34.6 51 22.8 44.4 12 36 12z" fill="url(#moon)" filter="url(#glow)"/>
  <circle cx="45" cy="16" r="1.2" fill="#6ee7b7" opacity="0.7"/>
  <circle cx="50" cy="24" r="0.8" fill="#6ee7b7" opacity="0.5"/>
  <circle cx="15" cy="18" r="1" fill="#6ee7b7" opacity="0.4"/>
</svg>
